<svg width="54" height="65" viewBox="0 0 54 65" fill="none" xmlns="http://www.w3.org/2000/svg">
<path d="M21.5124 21.8034L25.047 14.6416C25.8459 13.0227 28.1544 13.0227 28.9533 14.6416L32.4879 21.8034L40.3913 22.9518C42.1779 23.2114 42.891 25.4069 41.5984 26.6669L35.8793 32.2415L37.2296 40.1131C37.5348 41.8923 35.6669 43.2494 34.0692 42.4091L27 38.6927L19.9311 42.4091C18.3331 43.2494 16.4655 41.8923 16.7707 40.1131L18.1208 32.2415L12.4018 26.6669C11.109 25.4069 11.8224 23.2114 13.6089 22.9518L21.5124 21.8034ZM24.9121 24.7581C24.5948 25.401 23.9816 25.8466 23.272 25.9497L18.6029 26.628L21.9814 29.9214C22.4947 30.4218 22.7292 31.143 22.6077 31.8493L21.8102 36.4998L25.9866 34.304C26.621 33.9706 27.379 33.9706 28.0137 34.304L32.1898 36.4998L31.3923 31.8493C31.2712 31.143 31.5053 30.4218 32.0186 29.9214L35.3974 26.628L30.7283 25.9497C30.0188 25.8466 29.4056 25.401 29.0882 24.7581L27 20.5272L24.9121 24.7581ZM8.5303 0.578979C4.0953 0.578979 0.5 4.17427 0.5 8.60928V56.7911C0.5 61.2261 4.0953 64.8214 8.5303 64.8214H51.0909C52.4214 64.8214 53.5 63.7428 53.5 62.4123C53.5 61.0819 52.4214 60.0032 51.0909 60.0032H8.5303C6.75631 60.0032 5.31818 58.5652 5.31818 56.7911H51.0909C52.4214 56.7911 53.5 55.7125 53.5 54.382V8.60928C53.5 4.17427 49.9047 0.578979 45.4697 0.578979H8.5303ZM48.6818 51.9729H5.31818V8.60928C5.31818 6.83529 6.75631 5.39716 8.5303 5.39716H45.4697C47.2438 5.39716 48.6818 6.83529 48.6818 8.60928V51.9729Z" fill="url(#paint0_linear_498_38)"/>
<defs>
<linearGradient id="paint0_linear_498_38" x1="-1.31011" y1="2.38258" x2="68.6865" y2="58.0705" gradientUnits="userSpaceOnUse">
<stop stop-color="#212529"/>
<stop offset="0.209644" stop-color="#1E1F36"/>
<stop offset="0.435339" stop-color="#0D0177"/>
<stop offset="1" stop-color="#76DBFF"/>
</linearGradient>
</defs>
</svg>
