<svg width="54" height="53" viewBox="0 0 54 53" fill="none" xmlns="http://www.w3.org/2000/svg">
<path d="M43.9306 0C49.2155 0 53.5 4.28437 53.5 9.56944V43.4306C53.5 48.7155 49.2155 53 43.9306 53H10.0694C4.78437 53 0.5 48.7155 0.5 43.4306V9.56944C0.5 4.28437 4.78437 0 10.0694 0H43.9306ZM49.0833 16.1944H4.91667V43.4306C4.91667 46.2764 7.22364 48.5833 10.0694 48.5833H43.9306C46.7764 48.5833 49.0833 46.2764 49.0833 43.4306V16.1944ZM14.4861 33.8611C16.5188 33.8611 18.1667 35.5088 18.1667 37.5417C18.1667 39.5745 16.5188 41.2222 14.4861 41.2222C12.4534 41.2222 10.8056 39.5745 10.8056 37.5417C10.8056 35.5088 12.4534 33.8611 14.4861 33.8611ZM27 33.8611C29.0328 33.8611 30.6806 35.5088 30.6806 37.5417C30.6806 39.5745 29.0328 41.2222 27 41.2222C24.9672 41.2222 23.3194 39.5745 23.3194 37.5417C23.3194 35.5088 24.9672 33.8611 27 33.8611ZM14.4861 22.0833C16.5188 22.0833 18.1667 23.731 18.1667 25.7639C18.1667 27.7967 16.5188 29.4444 14.4861 29.4444C12.4534 29.4444 10.8056 27.7967 10.8056 25.7639C10.8056 23.731 12.4534 22.0833 14.4861 22.0833ZM27 22.0833C29.0328 22.0833 30.6806 23.731 30.6806 25.7639C30.6806 27.7967 29.0328 29.4444 27 29.4444C24.9672 29.4444 23.3194 27.7967 23.3194 25.7639C23.3194 23.731 24.9672 22.0833 27 22.0833ZM39.5139 22.0833C41.5467 22.0833 43.1944 23.731 43.1944 25.7639C43.1944 27.7967 41.5467 29.4444 39.5139 29.4444C37.481 29.4444 35.8333 27.7967 35.8333 25.7639C35.8333 23.731 37.481 22.0833 39.5139 22.0833ZM43.9306 4.41667H10.0694C7.22364 4.41667 4.91667 6.72364 4.91667 9.56944V11.7778H49.0833V9.56944C49.0833 6.72364 46.7764 4.41667 43.9306 4.41667Z" fill="url(#paint0_linear_498_34)"/>
<defs>
<linearGradient id="paint0_linear_498_34" x1="-1.31011" y1="1.48797" x2="57.9146" y2="58.6007" gradientUnits="userSpaceOnUse">
<stop stop-color="#212529"/>
<stop offset="0.209644" stop-color="#1E1F36"/>
<stop offset="0.435339" stop-color="#0D0177"/>
<stop offset="1" stop-color="#76DBFF"/>
</linearGradient>
</defs>
</svg>
