<svg width="21" height="21" viewBox="0 0 21 21" fill="none" xmlns="http://www.w3.org/2000/svg">
<path d="M7.94913 0.147259C8.06165 0.185539 8.17158 0.23107 8.27818 0.28356L9.56098 0.91511C9.90908 1.08651 10.3171 1.08651 10.6652 0.91511L11.948 0.28356C13.3105 -0.3873 14.959 0.17346 15.6298 1.53604L15.7033 1.69837L15.7661 1.86511L16.2266 3.21871C16.3516 3.58608 16.6401 3.87458 17.0074 3.99955L18.361 4.46001C19.7989 4.94913 20.568 6.51127 20.0789 7.94913C20.0406 8.06165 19.9951 8.17158 19.9426 8.27818L19.311 9.56098C19.1396 9.90908 19.1396 10.3171 19.311 10.6652L19.9426 11.948C20.6135 13.3105 20.0527 14.959 18.6901 15.6298C18.5835 15.6823 18.4736 15.7279 18.361 15.7661L17.0074 16.2266C16.6401 16.3516 16.3516 16.6401 16.2266 17.0074L15.7661 18.361C15.277 19.7989 13.7149 20.568 12.277 20.0789C12.1645 20.0406 12.0546 19.9951 11.948 19.9426L10.6652 19.311C10.3171 19.1396 9.90908 19.1396 9.56098 19.311L8.27818 19.9426C6.91561 20.6135 5.26717 20.0527 4.59631 18.6901C4.54381 18.5835 4.49828 18.4736 4.46001 18.361L3.99955 17.0074C3.87458 16.6401 3.58608 16.3516 3.21871 16.2266L1.86511 15.7661C0.42724 15.277 -0.341861 13.7149 0.147259 12.277C0.185539 12.1645 0.23107 12.0546 0.28356 11.948L0.91511 10.6652C1.08651 10.3171 1.08651 9.90908 0.91511 9.56098L0.28356 8.27818C-0.3873 6.91561 0.17346 5.26717 1.53604 4.59631C1.64267 4.54381 1.75259 4.49828 1.86511 4.46001L3.21871 3.99955C3.58608 3.87458 3.87458 3.58608 3.99955 3.21871L4.46001 1.86511C4.94913 0.42724 6.51127 -0.341861 7.94913 0.147259ZM13.5828 7.08274L8.16348 12.502L6.18923 10.133C5.92406 9.81468 5.45114 9.77168 5.13293 10.0369C4.81472 10.3021 4.77173 10.775 5.0369 11.0932L7.5369 14.0932C7.81924 14.432 8.33158 14.4553 8.64338 14.1434L14.6434 8.14338C14.9363 7.8505 14.9363 7.37563 14.6434 7.08274C14.3505 6.78985 13.8757 6.78985 13.5828 7.08274Z" fill="#49C0EB"/>
</svg>
