<svg width="13" height="13" viewBox="0 0 13 13" fill="none" xmlns="http://www.w3.org/2000/svg">
<path d="M6.08524 3.46522C4.35881 3.46522 2.96627 4.89354 2.96627 6.66431C2.96627 8.43508 4.35881 9.86339 6.08524 9.86339C7.81166 9.86339 9.2042 8.43508 9.2042 6.66431C9.2042 4.89354 7.81166 3.46522 6.08524 3.46522ZM6.08524 8.74413C4.96958 8.74413 4.0575 7.81141 4.0575 6.66431C4.0575 5.51721 4.96686 4.58449 6.08524 4.58449C7.20361 4.58449 8.11297 5.51721 8.11297 6.66431C8.11297 7.81141 7.2009 8.74413 6.08524 8.74413ZM10.0593 3.33437C10.0593 3.74922 9.73353 4.08054 9.33178 4.08054C8.92732 4.08054 8.60429 3.74643 8.60429 3.33437C8.60429 2.9223 8.93004 2.58819 9.33178 2.58819C9.73353 2.58819 10.0593 2.9223 10.0593 3.33437ZM12.125 4.09168C12.0789 3.09214 11.8563 2.20675 11.1424 1.47728C10.4312 0.747812 9.56794 0.519505 8.59344 0.469389C7.58907 0.41092 4.57869 0.41092 3.57432 0.469389C2.60253 0.516721 1.73932 0.745028 1.0254 1.4745C0.311489 2.20397 0.0916145 3.08935 0.0427534 4.08889C-0.0142511 5.11906 -0.0142511 8.20678 0.0427534 9.23694C0.0889 10.2365 0.311489 11.1219 1.0254 11.8513C1.73932 12.5808 2.59981 12.8091 3.57432 12.8592C4.57869 12.9177 7.58907 12.9177 8.59344 12.8592C9.56794 12.8119 10.4312 12.5836 11.1424 11.8513C11.8536 11.1219 12.0761 10.2365 12.125 9.23694C12.182 8.20678 12.182 5.12184 12.125 4.09168ZM10.8275 10.3423C10.6157 10.888 10.2059 11.3084 9.67109 11.5284C8.87032 11.8541 6.97016 11.7789 6.08524 11.7789C5.20031 11.7789 3.29744 11.8513 2.49938 11.5284C1.96734 11.3112 1.55745 10.8908 1.343 10.3423C1.0254 9.52093 1.0987 7.57197 1.0987 6.66431C1.0987 5.75665 1.02812 3.8049 1.343 2.98634C1.55473 2.44063 1.96462 2.02021 2.49938 1.80025C3.30016 1.4745 5.20031 1.54967 6.08524 1.54967C6.97016 1.54967 8.87303 1.47728 9.67109 1.80025C10.2031 2.01742 10.613 2.43784 10.8275 2.98634C11.1451 3.80769 11.0718 5.75665 11.0718 6.66431C11.0718 7.57197 11.1451 9.52372 10.8275 10.3423Z" fill="#49C0EB"/>
</svg>
