<svg width="170" height="39" viewBox="0 0 170 39" fill="none" xmlns="http://www.w3.org/2000/svg">
<path d="M28.0115 22.1407C28.0115 31.3362 22.4305 38.0489 15.5885 38.0489C12.2953 38.0489 9.67517 36.7309 8.27779 33.6912L7.64726 37.5891H0L6.24987 0H14.2806L12.2527 12.2198C13.9631 10.5287 16.1198 9.62321 18.3364 9.66548C23.2783 9.66548 28.0115 14.1866 28.0115 22.1407ZM19.8957 22.6515C19.8957 19.4587 18.2938 17.3846 15.5459 17.3846C12.3762 17.3846 10.0969 20.4497 10.0969 25.0832C10.0969 28.2761 11.7031 30.2991 14.4467 30.2991C17.6164 30.294 19.8957 27.2033 19.8957 22.6464V22.6515Z" fill="white"/>
<path d="M58.0215 10.1303L53.4587 37.5891H45.837L46.3013 34.7538C44.3723 36.897 41.8334 38.0757 39.2037 38.0488C34.3469 38.0488 31.0068 34.856 31.0068 28.6746C31.0071 27.5345 31.1071 26.3976 31.3051 25.2825L33.8399 10.1303H41.8664L39.5019 24.368C39.3887 24.9837 39.3316 25.6124 39.3315 26.2429C39.3315 28.5724 40.3454 29.8189 42.4159 29.8189C45.117 29.8189 47.0213 27.8419 47.6945 23.6886L49.978 10.1099L58.0215 10.1303Z" fill="white"/>
<path d="M81.7043 15.7549L69.0299 30.3962H79.719L78.492 37.5891H57.3694L58.2981 31.9185L71.0791 17.2773H61.0886L62.2687 10.1252H82.6756L81.7043 15.7549Z" fill="white"/>
<path d="M105.191 15.7549L92.5297 30.3962H103.219L101.996 37.5891H80.8564L81.7895 31.9185L94.5448 17.2773H84.5757L85.7601 10.1252H106.163L105.191 15.7549Z" fill="white"/>
<path d="M130.753 26.2429H113.938C114.232 29.3081 115.966 30.7027 119.135 30.7027C121.139 30.734 123.092 29.9467 124.674 28.4703L128.01 34.4984C125.138 37.0527 121.717 38.0489 118.253 38.0489C110.9 38.0489 106.086 33.1855 106.086 25.5328C106.086 16.414 111.701 9.69614 119.94 9.69614C126.91 9.69614 131.222 14.5595 131.222 21.7524C131.202 23.2652 131.045 24.7709 130.753 26.2429ZM114.402 21.1752H123.826C123.864 18.2377 122.122 16.5161 119.566 16.5161C116.852 16.5161 115.165 18.4421 114.402 21.1752Z" fill="white"/>
<path d="M162.859 0L156.609 37.5891H149L149.469 34.9071C147.687 36.9569 145.305 38.0852 142.836 38.0489C137.889 38.0489 133.16 33.538 133.16 25.5328C133.16 16.4139 138.78 9.69613 145.622 9.69613C148.664 9.69613 151.16 10.8098 152.592 13.3437L154.833 0.020431L162.859 0ZM151.071 22.6464C151.071 19.4536 149.511 17.3795 146.764 17.3795C143.551 17.3795 141.315 20.4446 141.315 25.0781C141.315 28.271 142.878 30.294 145.622 30.294C148.834 30.294 151.071 27.2033 151.071 22.6464Z" fill="white"/>
<path d="M165.343 26.8669C164.422 26.8669 163.521 27.1945 162.755 27.8081C161.99 28.4218 161.393 29.294 161.04 30.3144C160.688 31.3349 160.595 32.4578 160.775 33.5411C160.955 34.6244 161.398 35.6195 162.05 36.4005C162.701 37.1815 163.531 37.7134 164.434 37.9289C165.338 38.1444 166.274 38.0338 167.125 37.6111C167.976 37.1884 168.703 36.4726 169.215 35.5542C169.727 34.6358 170 33.5561 170 32.4516C170 30.9704 169.509 29.55 168.636 28.5026C167.763 27.4553 166.578 26.8669 165.343 26.8669ZM165.343 34.1865C165.058 34.1865 164.779 34.0852 164.542 33.8954C164.306 33.7056 164.121 33.4358 164.012 33.1201C163.903 32.8044 163.874 32.4571 163.93 32.122C163.985 31.7869 164.123 31.4791 164.324 31.2375C164.526 30.9959 164.782 30.8314 165.062 30.7647C165.341 30.698 165.631 30.7323 165.894 30.863C166.157 30.9938 166.382 31.2152 166.541 31.4993C166.699 31.7834 166.783 32.1174 166.783 32.459C166.783 32.9172 166.632 33.3566 166.362 33.6806C166.091 34.0045 165.725 34.1865 165.343 34.1865Z" fill="#49C0EB"/>
</svg>
