<svg width="78" height="14" viewBox="0 0 78 14" fill="none" xmlns="http://www.w3.org/2000/svg">
<path d="M13.2637 8.14643C13.2637 11.5298 10.7432 13.9997 7.65324 13.9997C6.16598 13.9997 4.98271 13.5147 4.35164 12.3963L4.06688 13.8305H0.613281L3.43581 0H7.06256L6.14674 4.49614C6.9192 3.87393 7.89319 3.54076 8.89423 3.55631C11.1261 3.55631 13.2637 5.21981 13.2637 8.14643ZM9.59841 8.3344C9.59841 7.15961 8.87498 6.39647 7.634 6.39647C6.20253 6.39647 5.17319 7.52427 5.17319 9.22912C5.17319 10.4039 5.89854 11.1482 7.1376 11.1482C8.56907 11.1464 9.59841 10.0092 9.59841 8.33252V8.3344Z" fill="#0D0177"/>
<path d="M26.8164 3.72737L24.7558 13.8305H21.3137L21.5234 12.7873C20.6522 13.5759 19.5056 14.0096 18.318 13.9997C16.1246 13.9997 14.6162 12.8249 14.6162 10.5505C14.6163 10.131 14.6615 9.71273 14.7509 9.30243L15.8957 3.72737H19.5205L18.4527 8.96597C18.4016 9.19252 18.3758 9.42382 18.3757 9.65581C18.3757 10.5129 18.8336 10.9716 19.7687 10.9716C20.9885 10.9716 21.8486 10.2441 22.1526 8.71598L23.1838 3.71985L26.8164 3.72737Z" fill="#0D0177"/>
<path d="M37.5119 5.79685L31.788 11.1839H36.6153L36.0612 13.8305H26.522L26.9414 11.7441L32.7134 6.35698H28.2016L28.7346 3.72546H37.9506L37.5119 5.79685Z" fill="#0D0177"/>
<path d="M48.1189 5.79685L42.4007 11.1839H47.228L46.6758 13.8305H37.1289L37.5503 11.7441L43.3108 6.35698H38.8086L39.3434 3.72546H48.5575L48.1189 5.79685Z" fill="#0D0177"/>
<path d="M59.663 9.65584H52.0689C52.2017 10.7836 52.9847 11.2968 54.4162 11.2968C55.3212 11.3083 56.2033 11.0186 56.9174 10.4754L58.4239 12.6934C57.1271 13.6332 55.5821 13.9997 54.0179 13.9997C50.6971 13.9997 48.5229 12.2103 48.5229 9.39457C48.5229 6.03938 51.0588 3.56763 54.7798 3.56763C57.9275 3.56763 59.8746 5.35706 59.8746 8.00362C59.8656 8.56023 59.7946 9.11422 59.663 9.65584ZM52.2786 7.79122H56.5345C56.5518 6.71041 55.7649 6.07697 54.6105 6.07697C53.3849 6.07697 52.623 6.7856 52.2786 7.79122Z" fill="#0D0177"/>
<path d="M74.1623 0L71.3398 13.8305H67.9035L68.1151 12.8437C67.3104 13.5979 66.2345 14.013 65.1194 13.9997C62.8857 13.9997 60.75 12.3399 60.75 9.39453C60.75 6.03934 63.2878 3.56759 66.3777 3.56759C67.7515 3.56759 68.8789 3.97735 69.5254 4.90966L70.5374 0.00751737L74.1623 0ZM68.8385 8.33252C68.8385 7.15774 68.1344 6.3946 66.8934 6.3946C65.4427 6.3946 64.4326 7.52239 64.4326 9.22724C64.4326 10.402 65.1387 11.1464 66.3777 11.1464C67.8284 11.1464 68.8385 10.0092 68.8385 8.33252Z" fill="#0D0177"/>
<path d="M75.2844 9.8855C74.8685 9.8855 74.4618 10.006 74.1159 10.2318C73.77 10.4576 73.5005 10.7785 73.3413 11.154C73.1821 11.5294 73.1404 11.9426 73.2216 12.3412C73.3027 12.7398 73.503 13.1059 73.7972 13.3933C74.0913 13.6806 74.4661 13.8763 74.8741 13.9556C75.2821 14.0349 75.705 13.9942 76.0893 13.8387C76.4737 13.6832 76.8022 13.4198 77.0333 13.0819C77.2644 12.744 77.3877 12.3467 77.3877 11.9403C77.3877 11.3953 77.1661 10.8727 76.7717 10.4873C76.3773 10.102 75.8423 9.8855 75.2844 9.8855ZM75.2844 12.5787C75.1558 12.5787 75.03 12.5414 74.923 12.4715C74.816 12.4017 74.7326 12.3024 74.6834 12.1863C74.6341 12.0701 74.6212 11.9423 74.6463 11.819C74.6714 11.6957 74.7334 11.5825 74.8244 11.4936C74.9154 11.4047 75.0313 11.3442 75.1575 11.3196C75.2837 11.2951 75.4145 11.3077 75.5334 11.3558C75.6523 11.4039 75.7539 11.4854 75.8254 11.5899C75.8969 11.6944 75.9351 11.8173 75.9351 11.943C75.9351 12.1116 75.8665 12.2733 75.7445 12.3925C75.6225 12.5117 75.457 12.5787 75.2844 12.5787Z" fill="#49C0EB"/>
</svg>
