<svg width="112" height="38" viewBox="0 0 112 38" fill="none" xmlns="http://www.w3.org/2000/svg">
<g clip-path="url(#clip0_649_1247)">
<path d="M26.0512 20.1917C26.005 15.3833 30.0117 13.073 30.192 12.963C27.9367 9.69473 24.4337 9.24552 23.1859 9.1951C20.2051 8.89256 17.3675 10.937 15.8517 10.937C14.3359 10.937 12.0021 9.23635 9.52962 9.28677C6.27615 9.33261 3.27685 11.1616 1.59928 14.0494C-1.77436 19.8525 0.739693 28.4701 4.03476 33.1869C5.64764 35.4926 7.5609 38.0916 10.0842 37.9953C12.5151 37.8991 13.4301 36.4368 16.3601 36.4368C19.2901 36.4368 20.1173 37.9953 22.6822 37.9495C25.2933 37.8991 26.9477 35.5934 28.5467 33.2786C30.3861 30.597 31.1486 28.0072 31.1948 27.8696C31.1347 27.8467 26.1066 25.9353 26.0512 20.1917Z" fill="white"/>
<path d="M21.231 6.069C22.5713 4.46007 23.4724 2.22774 23.2275 0C21.3004 0.0779252 18.9665 1.27431 17.5847 2.88323C16.3462 4.30422 15.2602 6.5778 15.5559 8.75971C17.6957 8.92473 19.8955 7.67334 21.231 6.069ZM42.9517 24.9177L40.7334 31.5872H37.882L45.1422 10.3916H48.4697L55.7576 31.5872H52.8092L50.5262 24.9177H42.9517ZM49.9578 22.7771L47.8689 16.676C47.3929 15.2917 47.0786 14.0357 46.7597 12.8072H46.6997C46.3808 14.0632 46.0342 15.3513 45.6229 16.6439L43.534 22.7725L49.9578 22.7771ZM57.9205 21.3332C57.9205 19.385 57.8604 17.8082 57.7911 16.3643H60.2959L60.4253 18.9771H60.4853C61.6268 17.1206 63.4338 16.0205 65.9386 16.0205C69.6496 16.0205 72.4363 19.1329 72.4363 23.758C72.4363 29.2311 69.0766 31.931 65.4626 31.931C63.4338 31.931 61.6592 31.0509 60.7395 29.5428H60.6794V37.8121H57.9205V21.3332ZM60.6748 25.3899C60.6748 25.8024 60.7349 26.1737 60.8042 26.5221C61.3126 28.4381 62.9902 29.7628 64.9912 29.7628C67.9397 29.7628 69.6542 27.3747 69.6542 23.8818C69.6542 20.8289 68.0367 18.2253 65.0883 18.2253C63.1889 18.2253 61.4142 19.5776 60.8689 21.654C60.7719 21.9978 60.6794 22.4104 60.6794 22.7862L60.6748 25.3899ZM75.3201 21.3332C75.3201 19.385 75.26 17.8082 75.1907 16.3643H77.6955L77.8249 18.9771H77.885C79.0265 17.1206 80.8334 16.0205 83.3382 16.0205C87.0492 16.0205 89.836 19.1329 89.836 23.758C89.836 29.2311 86.4762 31.931 82.8622 31.931C80.8334 31.931 79.0588 31.0509 78.1392 29.5428H78.0791V37.8121H75.3201V21.3332ZM78.0791 25.3899C78.0791 25.8024 78.1392 26.1737 78.2085 26.5221C78.7168 28.4381 80.3944 29.7628 82.3955 29.7628C85.3439 29.7628 87.0585 27.3747 87.0585 23.8818C87.0585 20.8289 85.441 18.2253 82.4925 18.2253C80.5931 18.2253 78.8185 19.5776 78.2732 21.654C78.1761 21.9978 78.0837 22.4104 78.0837 22.7862L78.0791 25.3899ZM92.7243 9.25935H95.5157V31.5826H92.7243V9.25935ZM101.126 24.4777C101.186 28.2181 103.599 29.7628 106.385 29.7628C108.382 29.7628 109.588 29.4191 110.632 28.979L111.108 30.9592C110.129 31.3993 108.446 31.9035 106.006 31.9035C101.283 31.9035 98.4595 28.8232 98.4595 24.2302C98.4595 19.6371 101.186 16.0205 105.655 16.0205C110.665 16.0205 111.996 20.3889 111.996 23.1896C111.996 23.758 111.936 24.1935 111.899 24.4777H101.126ZM109.306 22.4975C109.338 20.7373 108.576 18.0007 105.438 18.0007C102.614 18.0007 101.38 20.5814 101.158 22.4975H109.306Z" fill="white"/>
</g>
<defs>
<clipPath id="clip0_649_1247">
<rect width="112" height="38" fill="white"/>
</clipPath>
</defs>
</svg>
