<svg width="112" height="37" viewBox="0 0 112 37" fill="none" xmlns="http://www.w3.org/2000/svg">
<g clip-path="url(#clip0_649_1254)">
<path d="M111.931 8.80874C110.408 0.107556 84.1339 -2.60782 53.2438 2.74355C40.2711 4.99212 28.5573 8.30863 19.4352 12.0398C20.8365 12.0703 21.8757 12.39 22.5072 13.0167C23.0008 13.5085 23.2502 14.1834 23.2502 15.0243V15.8875H20.2212V15.1254C20.2212 14.4904 19.8385 14.0968 19.1608 14.0968C18.5912 14.0968 18.2404 14.3527 18.1271 14.8567C18.0892 15.0559 18.0934 15.2609 18.1394 15.4584C18.4635 16.7767 22.9612 17.5954 23.4504 20.0282C23.5146 20.3413 23.6016 21.0113 23.4644 21.9699C23.1838 23.932 21.4512 24.6891 19.2456 24.6891C16.1669 24.6891 14.9163 23.2382 14.9163 21.2377L14.9185 20.2913H18.1656L18.1673 21.4703C18.1673 22.133 18.6515 22.4988 19.3108 22.4988C19.9356 22.4988 20.3004 22.2485 20.4265 21.7367C20.485 21.5014 20.5107 21.1545 20.4042 20.8891C19.8034 19.3894 15.6035 18.6889 15.0864 16.2638C14.971 15.7187 14.9615 15.2547 15.0574 14.668C15.1066 14.3772 15.1972 14.0948 15.3263 13.8293C5.20792 18.5379 -0.711156 23.7189 0.0709132 28.1921C1.59545 36.8944 27.869 39.607 58.7585 34.2556C72.337 31.9038 84.5445 28.3831 93.835 24.4377C93.7006 24.4443 93.5701 24.4588 93.4306 24.4588C91.3165 24.4588 89.4288 23.6706 89.233 21.5203C89.1984 21.1289 89.1923 20.9652 89.1911 20.7421L89.1923 15.7987C89.1923 15.5855 89.2174 15.2114 89.2413 15.0182C89.4918 12.9401 91.143 12.0831 93.4317 12.0831C95.2028 12.0831 97.3744 12.5887 97.6132 15.0199C97.645 15.3252 97.6416 15.651 97.6411 15.7581V16.2249H94.5819V15.5283C94.5819 15.5134 94.5775 15.253 94.544 15.0904C94.4938 14.8423 94.2813 14.2672 93.41 14.2672C92.5492 14.2672 92.3261 14.8434 92.2703 15.091C92.2385 15.2269 92.2235 15.4223 92.2235 15.6388V21.0113C92.2207 21.1978 92.2302 21.3437 92.2491 21.4509C92.2642 21.5352 92.4187 22.2757 93.4206 22.2757C94.4152 22.2757 94.5691 21.5352 94.5831 21.4509C94.6093 21.3054 94.6126 21.1323 94.6115 21.0113V19.3466H93.4077V17.5538H97.6645V20.7432C97.6634 20.9602 97.66 21.1206 97.6232 21.5203C97.5719 22.0842 97.3934 22.5616 97.1133 22.9695C106.966 18.3142 112.703 13.2171 111.931 8.80874ZM31.834 24.2301L30.2843 13.7527H30.2286L28.6393 24.2301H25.3733L27.57 12.3978H32.8989L35.0822 24.2301H31.834ZM47.5434 24.2301L47.4715 13.9553H47.419L45.4973 24.2301H42.4321L40.5199 13.9553H40.4652L40.3955 24.2301H37.3581L37.6214 12.3978H42.5068L43.9293 21.1872H43.999L45.4254 12.3978H50.3086L50.5707 24.2301H47.5434ZM61.8466 21.9371C61.5197 24.229 59.2633 24.6297 57.6685 24.6297C55.0205 24.6297 53.3827 23.5035 53.3827 21.2116L53.3844 20.2769H56.5924L56.5947 21.4414C56.5947 22.0737 57.0426 22.4605 57.7343 22.4605C58.3513 22.4605 58.7127 22.2141 58.8382 21.7079C58.8963 21.472 58.9203 21.1278 58.8176 20.8681C58.2263 19.3966 54.0594 18.6756 53.5529 16.2882C53.4368 15.747 53.4285 15.2874 53.5239 14.7068C53.8764 12.5427 55.9638 12.0931 57.644 12.0931C59.1467 12.0931 60.2406 12.4194 60.8966 13.0722C61.3858 13.5595 61.6335 14.2284 61.6335 15.0604V15.9141H58.6335V15.1609C58.6335 14.5159 58.2313 14.1429 57.5848 14.1429C57.0114 14.1429 56.6644 14.3966 56.5506 14.8956C56.5137 15.0927 56.5186 15.2954 56.5651 15.4906C56.8864 16.8028 61.3446 17.6048 61.8327 20.0149C61.8957 20.3224 61.9821 20.9824 61.8466 21.9371ZM72.9573 20.8619C72.9618 21.084 72.94 21.5275 72.9278 21.6413C72.7448 23.5906 71.3436 24.5814 68.7737 24.5814C66.1937 24.5814 64.7914 23.5906 64.6095 21.6413C64.5889 21.3827 64.579 21.1235 64.5799 20.8642V12.395H67.6491V21.1312C67.6457 21.3265 67.6558 21.4709 67.6753 21.5713C67.7132 21.7656 67.9074 22.3961 68.7737 22.3961C69.6372 22.3961 69.8313 21.765 69.872 21.5735C69.8893 21.4703 69.8999 21.3188 69.8999 21.1306V12.395H72.9573V20.8619ZM86.1806 24.1096H81.9099L79.0432 14.7374H78.9952L79.1542 24.1096H76.1777V12.3978H80.6274L83.2771 21.4009H83.339L83.1823 12.3978H86.1806V24.1096Z" fill="white"/>
</g>
<defs>
<clipPath id="clip0_649_1254">
<rect width="112" height="37" fill="white"/>
</clipPath>
</defs>
</svg>
