<svg width="54" height="57" viewBox="0 0 54 57" fill="none" xmlns="http://www.w3.org/2000/svg">
<g clip-path="url(#clip0_649_1237)">
<path fill-rule="evenodd" clip-rule="evenodd" d="M45.4587 1.30273H48.6262L48.5266 1.85632H47.9329C47.636 1.85632 47.4382 1.79151 47.4382 1.79151V2.80126C47.4382 3.15917 47.3391 3.51791 47.3391 3.87582C47.3391 4.23414 47.24 4.59247 47.24 4.78814H46.4485V3.87582C46.4485 3.51791 46.5476 3.15917 46.5476 2.80126C46.5476 2.41032 46.6458 1.95458 46.6458 1.79151H46.2503H45.8539C45.6561 1.79151 45.4583 1.85632 45.4583 1.85632L45.4587 1.30273ZM49.0213 1.30273H50.1097C50.1097 1.49799 50.2088 1.69367 50.2088 1.79109C50.2088 1.95416 50.4066 2.24684 50.5057 2.60516C50.5057 2.703 50.6048 2.96349 50.6048 3.15875C50.703 3.51707 50.9017 3.8754 50.9017 3.8754C50.9017 3.68014 51.0994 3.41965 51.1985 3.06133C51.2968 2.80084 51.4954 2.4099 51.5941 2.14942C51.6932 1.8559 51.891 1.49799 51.891 1.30273H53.0789V2.4099C53.0789 2.80084 52.9798 3.32181 52.9798 3.68014V4.78773H52.1883V4.07108V3.15875C52.1883 2.86565 52.2874 2.60516 52.2874 2.40949V2.052L51.199 4.78814H50.4066C50.4066 4.59247 50.2088 4.23456 50.2088 3.97366C50.1097 3.51791 49.9119 3.15917 49.9119 3.06175C49.9119 2.86649 49.7141 2.50816 49.615 2.14984V3.06175C49.615 3.32223 49.5159 3.68056 49.5159 3.97366V4.78814H48.7244C48.7244 4.42982 48.8235 3.97366 48.8235 3.58314C48.8235 3.25742 48.9218 2.80126 48.9218 2.41032C48.9222 2.052 49.0213 1.69367 49.0213 1.30273ZM10.9496 56.7712H8.83799L8.01342 53.8402H4.12011L3.29554 56.7712H1.25L4.84601 43.8079H7.1554L10.9496 56.7712ZM7.41924 51.7229L6.03395 46.8376L4.74691 51.7229H7.41924ZM18.5376 56.7712H16.7559V55.4361C16.459 56.0223 16.063 56.4137 15.7001 56.5763C15.3376 56.7716 14.9412 57.0003 14.5452 57.0003C13.8193 57.0003 13.0938 56.5111 12.5657 55.697C11.972 54.9482 11.7081 53.6458 11.7081 52.1146C11.7081 50.5517 11.9724 49.1828 12.467 48.3687C12.9947 47.5873 13.7537 47.0989 14.6447 47.0989C15.3376 47.0989 16.0635 47.5873 16.6898 48.4666V43.8083H18.5376V56.7712ZM13.5228 51.8863C13.5228 52.8631 13.655 53.7423 13.8197 54.1337C14.117 54.7199 14.5456 55.1104 15.0407 55.1104C15.5023 55.1104 15.8653 54.8173 16.1621 54.4594C16.459 53.9702 16.6898 53.1562 16.6898 52.1794C16.6898 51.1367 16.5251 50.2578 16.2282 49.7686C15.9639 49.2802 15.5023 48.9545 15.0407 48.9545C14.6447 48.9545 14.2818 49.2802 13.9519 49.6716C13.6546 50.1599 13.5228 50.9088 13.5228 51.8863ZM20.055 51.8863C20.055 51.1367 20.1537 50.3226 20.451 49.5737C20.7809 48.7923 21.2099 48.2061 21.7376 47.8147C22.2984 47.3916 22.9912 47.0985 23.6515 47.0985C24.6742 47.0985 25.6309 47.5869 26.2577 48.4662C26.9506 49.4429 27.3135 50.7461 27.3135 52.1142C27.3135 53.4823 26.9506 54.7199 26.2577 55.5996C25.5318 56.5111 24.6742 57.0003 23.6515 57.0003C23.0247 57.0003 22.3979 56.7716 21.8041 56.4141C21.2104 56.0228 20.7813 55.4366 20.4514 54.7203C20.1546 53.9706 20.0555 52.9939 20.0555 52.0164L20.055 51.8863ZM21.9024 52.1142C21.9024 53.0918 22.0015 53.8406 22.2984 54.329C22.6283 54.8173 23.1233 55.1104 23.5854 55.1104C24.014 55.1104 24.5091 54.8173 24.8059 54.329C25.1359 53.8406 25.3336 53.0918 25.3336 52.1142C25.3336 51.1367 25.1359 50.3226 24.8059 49.8342C24.5091 49.2806 24.014 48.9545 23.5854 48.9545C23.1233 48.9545 22.6617 49.2802 22.3975 49.7686C22.1006 50.3222 21.9024 51.1367 21.9024 52.1142ZM28.7649 56.7712V43.8079H30.6118V48.4662C31.1404 47.5864 31.8989 47.0985 32.6243 47.0985C33.4819 47.0985 34.2082 47.5869 34.769 48.3683C35.3297 49.1824 35.66 50.4204 35.66 52.0164C35.66 53.5801 35.3301 54.9482 34.769 55.697C34.1752 56.5111 33.4497 57.0003 32.7234 57.0003C32.3279 57.0003 31.8989 56.7716 31.5355 56.5763C31.1399 56.4137 30.777 55.9253 30.5784 55.4361V56.7712H28.7649ZM30.6118 51.8863C30.6118 52.8631 30.7774 53.7423 30.9417 54.1337C31.2386 54.7199 31.7341 55.1104 32.2618 55.1104C32.7234 55.1104 33.0864 54.8173 33.3502 54.4594C33.6471 54.0681 33.8118 53.1562 33.8118 52.1794C33.8118 51.1367 33.6471 50.2578 33.3502 49.7686C33.0864 49.2802 32.6239 48.9545 32.1623 48.9545C31.7337 48.9545 31.3707 49.2802 31.0739 49.6716C30.7774 50.1599 30.6118 50.9088 30.6118 51.8863ZM41.2681 53.8406L43.1159 54.1337C42.9173 55.1104 42.4556 55.9253 41.9944 56.2832C41.4667 56.6746 40.7404 57.0003 39.9819 57.0003C38.8605 57.0003 37.8703 56.4141 37.3092 55.4366C36.8475 54.6225 36.6489 53.4823 36.6489 52.1799C36.6489 50.6487 36.9128 49.3463 37.5065 48.4666C38.1003 47.5869 38.9583 47.0989 39.882 47.0989C40.9043 47.0989 41.7297 47.5873 42.2909 48.4666C42.9173 49.4433 43.2802 50.9092 43.2802 52.7661H38.4975C38.4975 53.5801 38.5966 54.1337 38.927 54.5568C39.223 54.9482 39.5864 55.1104 39.9824 55.1104C40.3123 55.1104 40.6091 55.046 40.7409 54.8173C40.9052 54.6221 41.1038 54.2315 41.2681 53.8406ZM41.4337 51.2345C41.4337 50.5509 41.1699 49.9321 40.9712 49.5733C40.7074 49.182 40.3118 48.9545 39.9489 48.9545C39.5195 48.9545 39.1243 49.2802 38.9265 49.6716C38.5966 50.0621 38.4971 50.6483 38.4971 51.2345H41.4337Z" fill="white"/>
<path fill-rule="evenodd" clip-rule="evenodd" d="M0.920898 0H16.7567L0.920898 38.0761V0ZM27.5447 0H43.5783V37.5869L27.5447 0ZM22.3322 14.5592L31.0751 37.3921H25.6644L21.9362 30.1616H15.9978L22.3322 14.5592Z" fill="#CC2229"/>
</g>
<defs>
<clipPath id="clip0_649_1237">
<rect width="52.1695" height="57" fill="white" transform="translate(0.915039)"/>
</clipPath>
</defs>
</svg>
