<svg width="53" height="59" viewBox="0 0 53 59" fill="none" xmlns="http://www.w3.org/2000/svg">
<path d="M47.421 51.6053H31.4312C30.6301 53.1423 29.6153 54.5501 28.4258 55.7895H47.421C50.5006 55.7895 53 53.2901 53 50.2105V21.836C53 20.3576 52.4114 18.9377 51.3654 17.8917L35.1055 1.63463C35.0637 1.59293 35.0165 1.55675 34.9697 1.52082C34.9348 1.49424 34.9005 1.46782 34.8684 1.43937C34.6704 1.26084 34.4751 1.08511 34.2575 0.937263C34.187 0.889675 34.11 0.852128 34.033 0.814721C33.9883 0.792935 33.9437 0.771205 33.9005 0.747579C33.8539 0.72133 33.8076 0.694495 33.761 0.667605C33.6098 0.580127 33.4581 0.492286 33.2979 0.424C32.7484 0.195263 32.157 0.0808946 31.5573 0.0390525C31.5024 0.0355377 31.448 0.028118 31.3933 0.0206701C31.3177 0.0103491 31.2418 0 31.164 0H13.9474C10.8678 0 8.36842 2.49937 8.36842 5.57895V26.495C9.6911 25.9432 11.0932 25.5438 12.5526 25.3184V5.57895C12.5526 4.81184 13.1775 4.18421 13.9474 4.18421H30.6842V16.7368C30.6842 19.8164 33.1836 22.3158 36.2632 22.3158H48.8158V50.2105C48.8158 50.9776 48.1909 51.6053 47.421 51.6053ZM45.686 18.1316H36.2632C35.4933 18.1316 34.8684 17.5039 34.8684 16.7368V7.31121L45.686 18.1316ZM33.4737 43.2368C33.4737 44.677 33.3058 46.0779 32.9886 47.421H39.75C42.446 47.421 44.6316 45.2355 44.6316 42.5395V31.3816C44.6316 28.6856 42.446 26.5 39.75 26.5H22.3281C25.048 27.6367 27.432 29.417 29.2895 31.6505V30.6842H39.75C40.1352 30.6842 40.4474 30.9963 40.4474 31.3816V34.8684H31.4312C32.1135 36.1775 32.6407 37.5803 32.9886 39.0526H40.4474V42.5395C40.4474 42.9247 40.1352 43.2368 39.75 43.2368H33.4737ZM30.6842 43.2368C30.6842 51.7101 23.8153 58.5789 15.3421 58.5789C6.86888 58.5789 0 51.7101 0 43.2368C0 34.7635 6.86888 27.8947 15.3421 27.8947C23.8153 27.8947 30.6842 34.7635 30.6842 43.2368ZM24.6967 36.6715C24.1521 36.127 23.269 36.127 22.7243 36.6715L12.5526 46.8433L7.9599 42.2505C7.41523 41.706 6.53214 41.706 5.98747 42.2505C5.44276 42.7953 5.44276 43.6784 5.98747 44.2232L11.5664 49.8021C12.1111 50.3466 12.9942 50.3466 13.5388 49.8021L24.6967 38.6442C25.2414 38.0995 25.2414 37.2163 24.6967 36.6715Z" fill="url(#paint0_linear_498_36)"/>
<defs>
<linearGradient id="paint0_linear_498_36" x1="-1.81011" y1="1.6446" x2="63.0873" y2="58.2675" gradientUnits="userSpaceOnUse">
<stop stop-color="#212529"/>
<stop offset="0.209644" stop-color="#1E1F36"/>
<stop offset="0.435339" stop-color="#0D0177"/>
<stop offset="1" stop-color="#76DBFF"/>
</linearGradient>
</defs>
</svg>
