<svg width="65" height="15" viewBox="0 0 65 15" fill="none" xmlns="http://www.w3.org/2000/svg">
<path d="M64.2496 5.84439C63.0454 5.84732 61.8708 5.46505 60.8917 4.75157V9.72756C60.8914 10.6492 60.6147 11.5487 60.0986 12.3059C59.5825 13.0631 58.8516 13.6418 58.0036 13.9648C57.1557 14.2877 56.2311 14.3394 55.3535 14.1129C54.476 13.8865 53.6872 13.3927 53.0927 12.6977C52.4983 12.0026 52.1264 11.1393 52.0269 10.2233C51.9274 9.30724 52.105 8.38213 52.536 7.57163C52.9669 6.76113 53.6307 6.10387 54.4384 5.68774C55.2462 5.27161 56.1596 5.11644 57.0563 5.24299V7.74574C56.646 7.61434 56.2053 7.6183 55.7973 7.75705C55.3893 7.8958 55.0348 8.16224 54.7844 8.51833C54.534 8.87441 54.4005 9.30194 54.4031 9.73984C54.4056 10.1777 54.544 10.6036 54.7985 10.9567C55.053 11.3098 55.4106 11.5719 55.8201 11.7058C56.2297 11.8396 56.6704 11.8383 57.0792 11.702C57.488 11.5657 57.8441 11.3014 58.0965 10.9468C58.3489 10.5922 58.4849 10.1655 58.4848 9.72756V0H60.8917C60.89 0.206908 60.9071 0.413533 60.9426 0.617265C61.0262 1.07206 61.2001 1.50471 61.4536 1.88875C61.7072 2.27279 62.035 2.60014 62.4171 2.85078C62.9606 3.21665 63.5979 3.41166 64.2496 3.41152V5.84439Z" fill="#49C0EB"/>
<path d="M37.5641 4.31095C37.573 4.43758 37.573 4.56423 37.573 4.69086C37.573 8.55315 34.6852 13.0034 29.4072 13.0034C27.7812 13.0034 26.2706 12.524 25 11.6919C25.231 11.719 25.4531 11.728 25.6931 11.728C27.0348 11.728 28.2699 11.2667 29.2561 10.4798C27.9944 10.4527 26.937 9.61146 26.5727 8.45367C26.7504 8.48079 26.9281 8.49888 27.1148 8.49888C27.3724 8.49888 27.6301 8.46269 27.87 8.3994C26.555 8.12802 25.5686 6.95216 25.5686 5.53206V5.49589C25.9507 5.71298 26.395 5.84865 26.8659 5.86672C26.0929 5.34209 25.5864 4.44663 25.5864 3.43355C25.5864 2.89085 25.7286 2.39336 25.9774 1.95919C27.3902 3.73205 29.5138 4.88982 31.8951 5.01647C31.8507 4.79939 31.824 4.57328 31.824 4.34715C31.824 2.73708 33.1035 1.42554 34.694 1.42554C35.5204 1.42554 36.2668 1.7783 36.791 2.34815C37.4396 2.22152 38.0616 1.97729 38.6125 1.64262C38.3993 2.32103 37.9461 2.89088 37.3508 3.25266C37.9284 3.18938 38.4882 3.02653 39.0035 2.80042C38.6126 3.37929 38.1239 3.89485 37.5641 4.31095Z" fill="#49C0EB"/>
<path d="M6.08524 4.46522C4.35881 4.46522 2.96627 5.89354 2.96627 7.66431C2.96627 9.43508 4.35881 10.8634 6.08524 10.8634C7.81166 10.8634 9.2042 9.43508 9.2042 7.66431C9.2042 5.89354 7.81166 4.46522 6.08524 4.46522ZM6.08524 9.74413C4.96958 9.74413 4.0575 8.81141 4.0575 7.66431C4.0575 6.51721 4.96686 5.58449 6.08524 5.58449C7.20361 5.58449 8.11297 6.51721 8.11297 7.66431C8.11297 8.81141 7.2009 9.74413 6.08524 9.74413ZM10.0593 4.33437C10.0593 4.74922 9.73353 5.08054 9.33178 5.08054C8.92732 5.08054 8.60429 4.74643 8.60429 4.33437C8.60429 3.9223 8.93004 3.58819 9.33178 3.58819C9.73353 3.58819 10.0593 3.9223 10.0593 4.33437ZM12.125 5.09168C12.0789 4.09214 11.8563 3.20675 11.1424 2.47728C10.4312 1.74781 9.56794 1.51951 8.59344 1.46939C7.58907 1.41092 4.57869 1.41092 3.57432 1.46939C2.60253 1.51672 1.73932 1.74503 1.0254 2.4745C0.311489 3.20397 0.0916145 4.08935 0.0427534 5.08889C-0.0142511 6.11906 -0.0142511 9.20678 0.0427534 10.2369C0.0889 11.2365 0.311489 12.1219 1.0254 12.8513C1.73932 13.5808 2.59981 13.8091 3.57432 13.8592C4.57869 13.9177 7.58907 13.9177 8.59344 13.8592C9.56794 13.8119 10.4312 13.5836 11.1424 12.8513C11.8536 12.1219 12.0761 11.2365 12.125 10.2369C12.182 9.20678 12.182 6.12184 12.125 5.09168ZM10.8275 11.3423C10.6157 11.888 10.2059 12.3084 9.67109 12.5284C8.87032 12.8541 6.97016 12.7789 6.08524 12.7789C5.20031 12.7789 3.29744 12.8513 2.49938 12.5284C1.96734 12.3112 1.55745 11.8908 1.343 11.3423C1.0254 10.5209 1.0987 8.57197 1.0987 7.66431C1.0987 6.75665 1.02812 4.8049 1.343 3.98634C1.55473 3.44063 1.96462 3.02021 2.49938 2.80025C3.30016 2.4745 5.20031 2.54967 6.08524 2.54967C6.97016 2.54967 8.87303 2.47728 9.67109 2.80025C10.2031 3.01742 10.613 3.43784 10.8275 3.98634C11.1451 4.80769 11.0718 6.75665 11.0718 7.66431C11.0718 8.57197 11.1451 10.5237 10.8275 11.3423Z" fill="#49C0EB"/>
</svg>
