<svg width="86" height="14" viewBox="0 0 86 14" fill="none" xmlns="http://www.w3.org/2000/svg">
<path d="M6.15243 0.550145C6.49913 -0.183378 7.50085 -0.183385 7.84754 0.550145L9.4984 4.04291L13.1897 4.603C13.965 4.72063 14.2745 5.71544 13.7136 6.28639L11.0424 9.0051L11.673 12.8441C11.8054 13.6503 10.995 14.2651 10.3016 13.8844L6.99999 12.0719L3.69835 13.8844C3.00497 14.2651 2.19456 13.6503 2.32699 12.8441L2.95755 9.0051L0.286458 6.28639C-0.274506 5.71544 0.0350409 4.72063 0.810274 4.603L4.50163 4.04291L6.15243 0.550145Z" fill="#49C0EB"/>
<path d="M24.1524 0.550145C24.4991 -0.183378 25.5008 -0.183385 25.8475 0.550145L27.4984 4.04291L31.1897 4.603C31.965 4.72063 32.2745 5.71544 31.7136 6.28639L29.0424 9.0051L29.673 12.8441C29.8054 13.6503 28.995 14.2651 28.3016 13.8844L25 12.0719L21.6983 13.8844C21.005 14.2651 20.1946 13.6503 20.327 12.8441L20.9575 9.0051L18.2865 6.28639C17.7255 5.71544 18.035 4.72063 18.8103 4.603L22.5016 4.04291L24.1524 0.550145Z" fill="#49C0EB"/>
<path d="M42.1524 0.550145C42.4991 -0.183378 43.5008 -0.183385 43.8475 0.550145L45.4984 4.04291L49.1897 4.603C49.965 4.72063 50.2745 5.71544 49.7136 6.28639L47.0424 9.0051L47.673 12.8441C47.8054 13.6503 46.995 14.2651 46.3016 13.8844L43 12.0719L39.6983 13.8844C39.005 14.2651 38.1946 13.6503 38.327 12.8441L38.9575 9.0051L36.2865 6.28639C35.7255 5.71544 36.035 4.72063 36.8103 4.603L40.5016 4.04291L42.1524 0.550145Z" fill="#49C0EB"/>
<path d="M60.1524 0.550145C60.4991 -0.183378 61.5008 -0.183385 61.8475 0.550145L63.4984 4.04291L67.1897 4.603C67.965 4.72063 68.2745 5.71544 67.7136 6.28639L65.0424 9.0051L65.673 12.8441C65.8054 13.6503 64.995 14.2651 64.3016 13.8844L61 12.0719L57.6983 13.8844C57.005 14.2651 56.1946 13.6503 56.327 12.8441L56.9575 9.0051L54.2865 6.28639C53.7255 5.71544 54.035 4.72063 54.8103 4.603L58.5016 4.04291L60.1524 0.550145Z" fill="#49C0EB"/>
<path d="M78.1524 0.550145C78.4991 -0.183378 79.5008 -0.183385 79.8475 0.550145L81.4984 4.04291L85.1897 4.603C85.965 4.72063 86.2745 5.71544 85.7136 6.28639L83.0424 9.0051L83.673 12.8441C83.8054 13.6503 82.995 14.2651 82.3016 13.8844L79 12.0719L75.6983 13.8844C75.005 14.2651 74.1946 13.6503 74.327 12.8441L74.9575 9.0051L72.2865 6.28639C71.7255 5.71544 72.035 4.72063 72.8103 4.603L76.5016 4.04291L78.1524 0.550145Z" fill="#49C0EB"/>
</svg>
