<svg width="13" height="15" viewBox="0 0 13 15" fill="none" xmlns="http://www.w3.org/2000/svg">
<path d="M12.2496 5.84439C11.0454 5.84732 9.87084 5.46505 8.89171 4.75157V9.72756C8.89138 10.6492 8.61466 11.5487 8.09856 12.3059C7.58246 13.0631 6.85157 13.6418 6.00364 13.9648C5.1557 14.2877 4.23113 14.3394 3.35354 14.1129C2.47596 13.8865 1.6872 13.3927 1.09274 12.6977C0.498268 12.0026 0.126427 11.1393 0.0269328 10.2233C-0.0725611 9.30724 0.105035 8.38213 0.535973 7.57163C0.966911 6.76113 1.63065 6.10387 2.43844 5.68774C3.24623 5.27161 4.15957 5.11644 5.05632 5.24299V7.74574C4.64597 7.61434 4.20532 7.6183 3.7973 7.75705C3.38928 7.8958 3.03477 8.16224 2.78438 8.51833C2.53399 8.87441 2.40054 9.30194 2.40307 9.73984C2.4056 10.1777 2.544 10.6036 2.79849 10.9567C3.05298 11.3098 3.41055 11.5719 3.82015 11.7058C4.22974 11.8396 4.67041 11.8383 5.07921 11.702C5.48802 11.5657 5.84407 11.3014 6.0965 10.9468C6.34894 10.5922 6.48486 10.1655 6.48485 9.72756V0H8.89171C8.89004 0.206908 8.90707 0.413533 8.94258 0.617265C9.02622 1.07206 9.20012 1.50471 9.45364 1.88875C9.70717 2.27279 10.035 2.60014 10.4171 2.85078C10.9606 3.21665 11.5979 3.41166 12.2496 3.41152V5.84439Z" fill="#49C0EB"/>
</svg>
