<svg width="33" height="33" viewBox="0 0 33 33" fill="none" xmlns="http://www.w3.org/2000/svg">
<path d="M23.099 0C25.2818 0 27.0792 1.44415 27.3132 3.30073L29.7022 3.3C31.4325 3.3 32.8515 4.46673 32.9891 5.95068L33 6.1875V11.1375C33 13.997 30.4439 16.3337 27.2231 16.4916L26.8268 16.5012C25.5684 19.95 22.1187 22.5415 17.9112 23.0203L17.9101 25.575H21.2145C24.4803 25.575 27.1491 27.8132 27.3292 30.6332L27.339 30.9375V31.7625C27.339 32.389 26.8072 32.9068 26.1175 32.9888L25.9257 33H7.0752C6.35967 33 5.76834 32.5344 5.67476 31.9305L5.66185 31.7625V30.9375C5.66185 28.078 8.21806 25.7413 11.4389 25.5834L11.7864 25.575H15.0834L15.0839 23.0196C10.8792 22.5392 7.43195 19.9485 6.17403 16.5012L6.12454 16.5C2.74206 16.5 0 14.0991 0 11.1375V6.1875C0 4.59277 1.4765 3.3 3.29783 3.3L5.68763 3.30073C5.92162 1.44415 7.71915 0 9.90192 0H23.099ZM21.2145 28.05H11.7864C10.2227 28.05 8.91325 29.0029 8.57402 30.2816L8.52195 30.525H24.479C24.2638 29.208 23.0336 28.1777 21.5045 28.0611L21.2145 28.05ZM23.099 2.475H9.90192C9.12135 2.475 8.48856 3.02905 8.48856 3.7125V13.61C8.48856 17.4842 12.0756 20.625 16.5005 20.625C20.9252 20.625 24.5123 17.4842 24.5123 13.61V3.7125C24.5123 3.02905 23.8795 2.475 23.099 2.475ZM29.7022 5.775H27.339V13.9968C28.8466 13.811 30.0271 12.7328 30.1607 11.3918L30.1733 11.1375V6.1875C30.1733 5.99222 30.0184 5.82864 29.8103 5.78589L29.7022 5.775ZM5.66185 5.775H3.29783C3.03764 5.775 2.82671 5.95968 2.82671 6.1875V11.1375C2.82671 12.5947 4.05957 13.7998 5.66185 13.9968V5.775Z" fill="#49C0EB"/>
</svg>
