<svg width="15" height="13" viewBox="0 0 15 13" fill="none" xmlns="http://www.w3.org/2000/svg">
<path d="M12.5641 3.31095C12.573 3.43758 12.573 3.56423 12.573 3.69086C12.573 7.55315 9.6852 12.0034 4.40721 12.0034C2.78115 12.0034 1.27063 11.524 0 10.6919C0.231031 10.719 0.453146 10.728 0.693066 10.728C2.03475 10.728 3.26986 10.2667 4.25615 9.47981C2.99441 9.45266 1.93703 8.61146 1.57272 7.45367C1.75044 7.48079 1.92814 7.49888 2.11475 7.49888C2.37243 7.49888 2.63012 7.46269 2.87002 7.3994C1.55497 7.12802 0.568648 5.95216 0.568648 4.53206V4.49589C0.95071 4.71298 1.39502 4.84865 1.86592 4.86672C1.09288 4.34209 0.586426 3.44663 0.586426 2.43355C0.586426 1.89085 0.728567 1.39336 0.977377 0.959191C2.39018 2.73205 4.51382 3.88982 6.89511 4.01647C6.85069 3.79939 6.82402 3.57328 6.82402 3.34715C6.82402 1.73708 8.10354 0.425537 9.69404 0.425537C10.5204 0.425537 11.2668 0.7783 11.791 1.34815C12.4396 1.22152 13.0616 0.977289 13.6125 0.642624C13.3993 1.32103 12.9461 1.89088 12.3508 2.25266C12.9284 2.18938 13.4882 2.02653 14.0035 1.80042C13.6126 2.37929 13.1239 2.89485 12.5641 3.31095Z" fill="#49C0EB"/>
</svg>
